# xmcd
# 
# Track frame offsets:
#     150
#     18884
#     34658
#     58526
#     73875
#     91833
#     106722
#     124067
#     140722
#     159753
#     178703
# 
# Disc length: 2607
# 
# Revision: 6
# Processed by: cddbd v1.5.2PL0 Copyright (c) Steve Scherf et al.
# Submitted via: fre:ac v1.0.27
# 
DISCID=880a2d0b
DTITLE=Kenny Rogers - Water and Bridges
DYEAR=2006
DGENRE=Country
TTITLE0=Water and Bridges
TTITLE1=Someone Is Me
TTITLE2=Someone Somewhere Tonight
TTITLE3=I Can't Unlove You
TTITLE4=Calling Me (feat. Don Henley)
TTITLE5=Half A Man
TTITLE6=I Can Feel You Drifting
TTITLE7=The Last Ten Years ( Superman )
TTITLE8=You'll Know Love
TTITLE9=My Petition
TTITLE10=One Life
EXTD=
EXTT0=
EXTT1=
EXTT2=
EXTT3=
EXTT4=
EXTT5=
EXTT6=
EXTT7=
EXTT8=
EXTT9=
EXTT10=
PLAYORDER=
